<?xml version="1.0" encoding="UTF-8"?>
<!DOCTYPE svg PUBLIC "-//W3C//DTD SVG 1.1//EN" "http://www.w3.org/Graphics/SVG/1.1/DTD/svg11.dtd">
<!-- Creator: CorelDRAW 2020 (64 Bit) -->
<svg xmlns="http://www.w3.org/2000/svg" xml:space="preserve" width="2247px" height="1748px" version="1.1" style="shape-rendering:geometricPrecision; text-rendering:geometricPrecision; image-rendering:optimizeQuality; fill-rule:evenodd; clip-rule:evenodd"
viewBox="0 0 5912.76 4600.56"
 xmlns:xlink="http://www.w3.org/1999/xlink"
 xmlns:xodm="http://www.corel.com/coreldraw/odm/2003">
 <defs>
  <style type="text/css">
   <![CDATA[
    .fil0 {fill:#2222FE}
   ]]>
  </style>
 </defs>
 <g id="Camada_x0020_1">
  <metadata id="CorelCorpID_0Corel-Layer"/>
  <path class="fil0" d="M2651.25 3154.8c-118.26,0 -60.04,-17.5 -206.54,-51.64 -96.45,-414.01 -49.15,-727.1 -9.17,-1145.13 74.19,-775.98 99.36,-636.2 1319.07,93.42 175.67,105.08 189.99,117.83 239.14,328.83 -196.66,226.25 -1238.86,774.52 -1342.5,774.52zm-2633.36 -1858.84c0,1242.96 -237.48,2318.52 1017.94,2751.38 452.44,156.01 1510.84,553.22 1925.23,553.22 343.62,0 1115.47,-278.64 1453.78,-405.05 733.38,-274.07 1489.39,-352.41 1489.39,-1711.96 0,-740.21 87.95,-1451.92 -301.09,-1970.83 -821.36,-1095.6 -2139.75,-94.55 -2642.08,-94.55 -497.04,0 -825.87,-413.08 -1703.94,-413.08 -625.24,0 -1239.23,658.62 -1239.23,1290.87z"/>
 </g>
</svg>
