<?xml version="1.0" encoding="UTF-8"?>
<!DOCTYPE svg PUBLIC "-//W3C//DTD SVG 1.1//EN" "http://www.w3.org/Graphics/SVG/1.1/DTD/svg11.dtd">
<!-- Creator: CorelDRAW 2020 (64 Bit) -->
<svg xmlns="http://www.w3.org/2000/svg" xml:space="preserve" width="902px" height="1748px" version="1.1" style="shape-rendering:geometricPrecision; text-rendering:geometricPrecision; image-rendering:optimizeQuality; fill-rule:evenodd; clip-rule:evenodd"
viewBox="0 0 256.82 497.87"
 xmlns:xlink="http://www.w3.org/1999/xlink"
 xmlns:xodm="http://www.corel.com/coreldraw/odm/2003"
 role="img">
 <defs>
  <style type="text/css">
   <![CDATA[
    .fil0 {fill:#A435F0;fill-rule:nonzero}
   ]]>
  </style>
 </defs>
 <g id="Camada_x0020_1">
  <metadata id="CorelCorpID_0Corel-Layer"/>
  <g id="_1810275800416">
   <path class="fil0" d="M128.41 0l-128.41 74.12 0 74.14 128.39 -74.14 128.43 74.14 0 -74.14 -128.41 -74.12zm-128.41 210.52l0 168.94c0,38.38 12.22,67.28 36.12,87.83 23.89,20.56 54.47,30.58 91.73,30.58 37.26,0 67.81,-10 92.27,-30.58 24.46,-20.55 36.68,-50.59 36.68,-89.49l0 -167.28 -67.26 0 0 162.84c0,42.24 -31.3,63.38 -61.15,63.38 -29.62,0 -61.14,-20.56 -61.14,-62.8l0 -163.42 -67.25 0z"/>
  </g>
 </g>
</svg>
